<?xml version="1.0" encoding="UTF-8" standalone="no"?>
<!-- Created with Inkscape (http://www.inkscape.org/) -->

<svg
   version="1.1"
   id="svg2"
   width="4000"
   height="4000"
   viewBox="0 0 4000 4000"
   xmlns="http://www.w3.org/2000/svg"
   xmlns:svg="http://www.w3.org/2000/svg">
  <defs
     id="defs6">
    <clipPath
       clipPathUnits="userSpaceOnUse"
       id="clipPath16">
      <path
         d="M 0,3000 H 3000 V 0 H 0 Z"
         id="path14" />
    </clipPath>
    <clipPath
       clipPathUnits="userSpaceOnUse"
       id="clipPath24">
      <path
         d="M 851.854,1784.93 H 2353.58 V 681.409 H 851.854 Z"
         id="path22" />
    </clipPath>
    <clipPath
       clipPathUnits="userSpaceOnUse"
       id="clipPath56">
      <path
         d="M 0,3000 H 3000 V 0 H 0 Z"
         id="path54" />
    </clipPath>
  </defs>
  <g
     id="g8"
     transform="matrix(1.3333333,0,0,-1.3333333,0,4000)">
    <g
       id="g10">
      <g
         id="g12"
         clip-path="url(#clipPath16)">
        <g
           id="g18">
          <g
             id="g20" />
          <g
             id="g32">
            <g
               clip-path="url(#clipPath24)"
               id="g30">
              <g
                 transform="translate(2290.1125,1767.9407)"
                 id="g28">
                <path
                   d="m 0,0 c -2.454,5.71 -4.974,11.371 -7.548,16.992 157.361,-391.202 -25.713,-838.517 -415.198,-1005.889 -389.484,-167.373 -840.004,7.67 -1015.512,391.073 2.307,-5.735 4.679,-11.46 7.133,-17.17 169.826,-395.194 627.866,-577.891 1023.06,-408.065 C -12.871,-853.234 169.826,-395.194 0,0"
                   style="fill:#1d1d1b;fill-opacity:1;fill-rule:nonzero;stroke:none"
                   id="path26" />
              </g>
            </g>
          </g>
        </g>
        <g
           id="g34"
           transform="translate(977.8176,878.0407)">
          <path
             d="m 0,0 c -329.617,329.617 -329.618,864.031 -0.001,1193.648 138.954,138.954 324.159,202.703 516.228,199.326 -393.733,63.424 -985.488,-164.812 -896.429,-889.638 29.438,-186.387 115.97,-365.504 259.608,-509.142 361.331,-361.33 947.163,-361.33 1308.492,0.001 1.705,1.705 3.386,3.424 5.075,5.139 C 863.303,-329.611 329.393,-329.393 0,0"
             style="fill:#f1bc00;fill-opacity:1;fill-rule:nonzero;stroke:none"
             id="path36" />
        </g>
        <g
           id="g38"
           transform="translate(1811.7229,2204.6479)">
          <path
             d="m 0,0 -237.327,-200.896 -2.85,-2.399 316.772,23.51 120.27,-294.012 75.52,308.551 316.808,23.531 -270.127,167.189 75.52,308.55 -242.463,-205.23 -0.771,0.13 c -352.268,196.908 -805.925,145.644 -1105.385,-153.817 -45.782,-45.782 -85.752,-95.173 -119.932,-147.25 C -827.066,159.051 -346.803,232.395 0,0"
             style="fill:#f1bc00;fill-opacity:1;fill-rule:nonzero;stroke:none"
             id="path40" />
        </g>
        <g
           id="g42"
           transform="translate(2039.3009,2201.9146)">
          <path
             d="M 0,0 25.631,104.111 -56.302,34.953 -147.39,91.5 l 40.452,-99.289 -81.92,-69.155 106.929,7.794 39.982,-98.123 0.471,-1.166 25.634,104.098 106.93,7.794 z"
             style="fill:#1d1d1b;fill-opacity:1;fill-rule:nonzero;stroke:none"
             id="path44" />
        </g>
      </g>
    </g>
    <g
       id="g46"
       transform="translate(1011.314,1591.0811)">
      <path
         d="M 0,0 H -38.326 V -109.901 H -59.501 V 0 h -38.15 V 17.15 H 0 Z"
         style="fill:#000000;fill-opacity:1;fill-rule:nonzero;stroke:none"
         id="path48" />
    </g>
    <g
       id="g50">
      <g
         id="g52"
         clip-path="url(#clipPath56)">
        <g
           id="g58"
           transform="translate(1033.8872,1535.7798)">
          <path
             d="M 0,0 V 72.626 H 21.175 V 0 c 0,-29.575 13.651,-40.25 30.626,-40.25 16.625,0 30.45,10.675 30.45,40.25 v 72.626 h 21.176 V 0 c 0,-41.3 -24.151,-57.925 -51.626,-57.925 C 23.975,-57.925 0,-41.3 0,0"
             style="fill:#000000;fill-opacity:1;fill-rule:nonzero;stroke:none"
             id="path60" />
        </g>
        <g
           id="g62"
           transform="translate(1186.6626,1527.73)">
          <path
             d="m 0,0 h 18.725 c 23.101,0 34.301,13.825 34.301,32.025 0,17.676 -11.55,31.326 -34.301,31.326 H 0 Z m 51.626,-46.55 -25.201,30.275 c -2.1,-0.175 -4.55,-0.35 -6.825,-0.35 H 0 V -46.55 H -21.351 V 80.501 H 19.6 c 32.376,0 54.776,-18.9 54.776,-48.301 0,-19.775 -10.675,-35.35 -27.825,-43.225 l 30.1,-35.525 z"
             style="fill:#000000;fill-opacity:1;fill-rule:nonzero;stroke:none"
             id="path64" />
        </g>
        <g
           id="g66"
           transform="translate(1363.0625,1481.1797)">
          <path
             d="m 0,0 -31.325,50.4 -34.126,-52.325 -11.725,1.75 v 127.227 h 21.175 V 45.326 l -1.75,-8.926 3.851,8.225 49.7,82.427 H 19.251 L -18.025,66.326 24.676,0 Z"
             style="fill:#000000;fill-opacity:1;fill-rule:nonzero;stroke:none"
             id="path68" />
        </g>
        <g
           id="g70"
           transform="translate(1561.6836,1491.6797)">
          <path
             d="m 0,0 c -11.025,-8.925 -27.125,-13.825 -43.4,-13.825 -36.926,0 -64.927,25.9 -64.927,66.5 0,41.126 30.626,67.202 68.601,67.202 11.026,0 23.276,-2.275 35.001,-7.525 V 94.151 c -11.2,4.9 -23.1,8.051 -33.6,8.051 -26.076,0 -48.126,-18.551 -48.126,-49.001 0,-31.326 19.425,-49.176 45.15,-49.176 7.176,0 14.526,1.225 21.7,3.325 v 21.525 h -25.2 v 16.451 l 44.801,0 z"
             style="fill:#000000;fill-opacity:1;fill-rule:nonzero;stroke:none"
             id="path72" />
        </g>
        <g
           id="g74"
           transform="translate(1668.2568,1498.3301)">
          <path
             d="m 0,0 v -17.15 h -80.676 v 127.051 h 21.175 L -59.501,0 Z"
             style="fill:#000000;fill-opacity:1;fill-rule:nonzero;stroke:none"
             id="path76" />
        </g>
        <g
           id="g78"
           transform="translate(1698.3574,1544.1802)">
          <path
             d="m 0,0 c 0,-28.875 21,-48.65 45.676,-48.65 24.5,0 45.676,19.775 45.676,48.65 0,30.276 -21.176,49.701 -45.676,49.701 C 21,49.701 0,30.276 0,0 m 113.402,0 c 0,-40.075 -31.326,-66.326 -67.726,-66.326 -36.226,0 -67.727,26.251 -67.727,66.326 0,40.601 31.501,67.376 67.727,67.376 36.4,0 67.726,-27.125 67.726,-67.376"
             style="fill:#000000;fill-opacity:1;fill-rule:nonzero;stroke:none"
             id="path80" />
        </g>
        <g
           id="g82"
           transform="translate(1906.9561,1518.8052)">
          <path
             d="m 0,0 c 0,10.5 -8.4,21.35 -25.2,21.35 h -24.676 v -42.7 H -25.2 C -8.4,-21.35 0,-10.501 0,0 M -49.876,73.151 V 36.226 h 22.051 c 14,0 20.65,9.1 20.65,18.2 0,9.275 -7,18.725 -20.65,18.725 z M 20.125,-1.926 c 0,-17.675 -14.524,-35.699 -43.925,-35.699 H -70.176 V 89.426 h 43.051 c 26.775,0 39.9,-16.8 39.9,-33.426 0,-10.149 -4.9,-20.475 -14.525,-26.6 14.525,-6.3 21.875,-18.725 21.875,-31.326"
             style="fill:#000000;fill-opacity:1;fill-rule:nonzero;stroke:none"
             id="path84" />
        </g>
        <g
           id="g86"
           transform="translate(1973.8037,1517.5796)">
          <path
             d="m 0,0 h 51.275 l -24.325,56.351 -1.4,4.9 -1.4,-4.9 z M 56.876,-16.8 H -5.95 l -8.051,-19.6 H -35.876 L 19.95,91.702 H 30.976 L 86.977,-36.4 H 64.751 Z"
             style="fill:#000000;fill-opacity:1;fill-rule:nonzero;stroke:none"
             id="path88" />
        </g>
        <g
           id="g90"
           transform="translate(2161.75,1498.3301)">
          <path
             d="m 0,0 v -17.15 h -80.676 v 127.051 h 21.175 L -59.501,0 Z"
             style="fill:#000000;fill-opacity:1;fill-rule:nonzero;stroke:none"
             id="path92" />
        </g>
        <g
           id="g94"
           transform="translate(1146.8779,1377.2217)">
          <path
             d="m 0,0 c 0,22.802 17.201,38.002 38.402,38.002 6.401,0 13.101,-1.199 19.801,-4.3 v -8.7 c -6.4,3.3 -13.201,4.8 -19.301,4.8 C 23.201,29.802 10,18.102 10,-0.2 c 0,-18.001 13.201,-29.602 28.902,-29.602 5.901,0 13.201,1.5 19.901,4.601 v -8.501 c -6.9,-3 -14.1,-4.3 -20.701,-4.3 C 16.801,-38.002 0,-22.602 0,0"
             style="fill:#f1bc00;fill-opacity:1;fill-rule:nonzero;stroke:none"
             id="path96" />
        </g>
        <g
           id="g98"
           transform="translate(1344.7798,1348.7197)">
          <path
             d="M 0,0 V -7.7 H -43.803 V 64.704 H -0.8 v -7.7 H -34.202 V 23.102 H -3.3 V 15.401 H -34.202 V 0 Z"
             style="fill:#f1bc00;fill-opacity:1;fill-rule:nonzero;stroke:none"
             id="path100" />
        </g>
        <g
           id="g102"
           transform="translate(1499.3799,1413.4238)">
          <path
             d="m 0,0 v -72.404 h -9.701 v 22.401 l -38.802,32.702 -2.5,3.3 1,-4.2 v -54.203 h -9.501 V -0.9 l 3.4,1.501 46.403,-39.204 V 0 Z"
             style="fill:#f1bc00;fill-opacity:1;fill-rule:nonzero;stroke:none"
             id="path104" />
        </g>
        <g
           id="g106"
           transform="translate(1647.9795,1405.623)">
          <path
             d="m 0,0 h -22.302 v -64.604 h -9.6 V 0 H -54.004 V 7.801 H 0 Z"
             style="fill:#f1bc00;fill-opacity:1;fill-rule:nonzero;stroke:none"
             id="path108" />
        </g>
        <g
           id="g110"
           transform="translate(1784.877,1348.7197)">
          <path
             d="M 0,0 V -7.7 H -43.803 V 64.704 H -0.8 v -7.7 H -34.202 V 23.102 H -3.3 V 15.401 H -34.202 V 0 Z"
             style="fill:#f1bc00;fill-opacity:1;fill-rule:nonzero;stroke:none"
             id="path112" />
        </g>
        <g
           id="g114"
           transform="translate(1923.0762,1386.1221)">
          <path
             d="m 0,0 c 0,10.601 -7.101,19.501 -21.001,19.501 h -12.501 v -39.502 h 12.501 C -7,-20.001 0,-10.9 0,0 m -1.1,-45.103 -15.401,17.702 c -1.3,-0.1 -2.7,-0.201 -4.2,-0.201 h -12.801 v -17.501 h -9.601 v 72.405 h 22.402 C -2.1,27.302 9.601,15.801 9.601,0 9.601,-11.301 3.4,-20.801 -7.3,-25.102 l 17.601,-20.001 z"
             style="fill:#f1bc00;fill-opacity:1;fill-rule:nonzero;stroke:none"
             id="path116" />
        </g>
      </g>
    </g>
  </g>
</svg>
